<?xml version="1.0" encoding="utf-8"?>
<!DOCTYPE svg PUBLIC "-//W3C//DTD SVG 1.1//EN" "http://www.w3.org/Graphics/SVG/1.1/DTD/svg11.dtd">
<svg version="1.1" xmlns="http://www.w3.org/2000/svg" xmlns:xlink="http://www.w3.org/1999/xlink" 
	x="0px" y="0px" 
	width="100%" height="100%" 
	viewBox="0 0 800 480" 
	enable-background="new 0 0 800 480" 
	xml:space="preserve"
	onload="onLoad();">
	
	<script type="application/ecmascript">
		<![CDATA[
	  
		var mirrored = false;
	  
			/* onLoad will get image of hand, mirror the image if needed and start animation 
			*/
			function onLoad() {
				// mirror svg image if used as left hand
				mirrored = window.parent.getMirrored();
				if (mirrored) {
					var gui = document.getElementById('MirroredEndPosition');
					gui.setAttribute("transform","scale(-1, 1) translate(-800,0)");
				}


				// Get URI argument from html
				var args = window.parent.getArguments();

				// Diplay Result icon. Limit to the icon # 0 to 8 and 11 in graphic array.
				if (args.Result >= 0 && args.Result <= 11) {	
					SetResult(args.Result);
				}
				
				// Enable buttons
				SetButton(args.ButtonRetry, "Retry");
				SetButton(args.ButtonConfirm, "Confirm");

				Animate();
			}


			/********************************************************************************
				Called by onLoad
				SetResult will show or hide the Result Icons by Result-Parameter
			Input:
			  result icon number
				1 - green Icon (OK) displayed when capture is complete
				2 - General error
				3 - Clean Platen
				4 - Recording error
				5 - Roll error
				6 - Segmentation error displayed if flat captured images can not be segmented
				7 - Quality-Check error
				8 - Sequence-Check error displayed when fingerprint does not match flat capture
			********************************************************************************/
			function SetResult(result) {
				var i;
				
				// loop to hide all of the Result Icons and show only the correct one
				for (i = 1; i <= 11; i++) {
					// All the Result icon images are in the format IDIconResult_X where X is the Argument number 
					var resultIcon = document.getElementById('IDIconResult_' + i);
					if (resultIcon) {
						if (i == result) {
							resultIcon.setAttribute("display","inline");	// Display icon
						}
						else
							resultIcon.setAttribute("display","none");		// hide icon
					}
				}
			}

			/********************************************************************************
			  called by onLoad
			  SetButton will change the button icon to the active or inactive state
			  The button names are:
				IDButtonRetryActive
				IDButtonRetryInactive
				IDButtonConfirmActive
				IDButtonConfirmInactive
			INPUTS:
				state 	0 - inactive button is grayed out
						1 - active button is raised
						2 - button is hidden
				button  - string containing the name of the button. Used to get graphics element
						 must be set to "Retry" or "Confirm".
			********************************************************************************/
			function SetButton(state, button) {
				var ActiveButtonIcon = document.getElementById('IDButton' + button + 'Active');
				var InactiveButtonIcon = document.getElementById('IDButton' + button + 'Inactive');
				
				switch(state) {
					case 0:
						//inactive
						ActiveButtonIcon.setAttribute("display","none");
						InactiveButtonIcon.setAttribute("display","inline");
						if (button == "Confirm") {
							MoveRetryButton(0);
						}
						break;
						
					case 1:
						//active
						ActiveButtonIcon.setAttribute("display","inline");
						InactiveButtonIcon.setAttribute("display","none");
						if (button == "Confirm") {
							MoveRetryButton(0);
						}
						break;
						
					case 2:
						//hidden
						ActiveButtonIcon.setAttribute("display","none");
						InactiveButtonIcon.setAttribute("display","none");
						
						//if the Button "Confirm" is not visible, move the Retry-Button to right
						if (button == "Confirm") {
							MoveRetryButton(1);
						}
						break;

					default:
						//inactive
						ActiveButtonIcon.setAttribute("display","none");
						InactiveButtonIcon.setAttribute("display","inline");
						break;
				}
			}


			/********************************************************************************
			  called by SetButton
			  MoveRetryButton will preposition Retry button if Confirm button is hidden

			INPUTL
				position - Retry button position
						   0 - initial possition as defined by SVG graphics
						   1 - move button to left
			********************************************************************************/
			function MoveRetryButton(position) {
				var retryBtn1 = document.getElementById('IDButtonRetryActive');
				var retryBtn2 = document.getElementById('IDButtonRetryInactive');
				
				if (position == 1) {
					retryBtn1.setAttribute("transform","translate(113,0)");
					retryBtn2.setAttribute("transform","translate(113,0)");
				} 
				else {
					retryBtn1.setAttribute("transform","translate(0,0)");	// original position
					retryBtn2.setAttribute("transform","translate(0,0)");			
				}
			}


			/********************************************************************************
			 Animate will get image of hand, calculate new position and display image
			********************************************************************************/
			function Animate() {
				var regularHand = document.getElementById('EndPosition');
				regularHand.setAttribute("display","none");		// hide hand

				var endX = 400;
				var endY = -420;
				var percentageMoved = 0;
				
				window.clearInterval(window.timer);

				window.timer = window.setInterval(
					function() {
						percentageMoved += 0.05;
						scaleRate2 = 2 - percentageMoved;
						if (percentageMoved > 1.05) {
							window.clearInterval(window.timer); 
							setTimeout(
								function(){
									Animate();
								}
								,1200); 	// 1200 millisecond delay after each animation cycle
							return; 
						}
						else {
							var x2 = endX * (1 - percentageMoved);
							var y2 = endY * (1- percentageMoved);
						  
							// Build the text versions of the translate and scale transformation
							var trans2 = "translate(" + x2 + ", " + y2 + ")";
							var scale2 = "scale(" + scaleRate2 + ", " + scaleRate2 + ")";
							
							// Apply the transformation 
							regularHand.setAttributeNS(null, "transform", trans2 + " " + scale2);
							regularHand.setAttribute("display","inline");	// display image
						}				
					} 
					,100);  // 100 millisecond delay after each animation frame
			}

		]]>
    </script>
	

<g id="MirroredEndPosition">
<g id="EndPosition">
	<title>Right index and middle finger (javascript object id="hand_23") </title>
	<path id="hand fill" fill="#FFFFFF" opacity="0.5"                                              d="m553.62701,475.12534c0.67902,4.58157 1.37598,6.10233 2.00897,10.82455c1.521,11.33881 3.53705,30.53265 -2.00195,51.80505c-5.39404,20.70703 -19.76105,83.26709 -23.60504,95.72717c-3.51001,11.3689 -20.526,53.18341 -24.91199,63.08356c-4.38501,9.90173 -5.26398,15.77039 -1.75397,34.47687c3.508,18.70648 4.185,58.07227 4.185,58.07227l-198.20502,10.15552c0,0 -2.504,-68.15247 -7.746,-85.15137c-5.246,-17.00067 -7.914,-30.94714 -12.57199,-37.18182c-3.93201,-5.25739 -35.14301,-33.65454 -46.289,-41.33044c-11.14502,-7.67755 -47.76401,-43.70038 -53.16402,-62.62372c-3.239,-11.35974 -15.655,-29.17932 -20.782,-35.00201c-9.797,-11.12347 -20.67,-21.36945 -24.894,-36.08389c-1.22501,-4.26419 -8.006,-19.51794 -9.97501,-25.00061c-2.248,-6.26981 1.028,-4.74066 -2.57599,-8.87674c-4.30501,-4.93576 -20.578,-34.81525 -18.61101,-37.55444c1.97,-2.74088 9.834,-8.77542 22.291,-9.87076c12.455,-1.09787 25.035,3.94846 35.603,11.43256c7.912,5.60574 22.983,17.37161 30.793,40.58682c1.565,4.65775 14.692,18.6503 31.30299,26.83121c6.73001,3.31451 17.117,9.75269 21.74402,4.93497c10.51599,-10.95447 6.061,-40.38919 6.88901,-48.21161c2.03699,-19.18295 4.66397,-48.64539 4.66397,-48.64539s0.979,-57.37555 1.94501,-76.33826c2.86902,-56.29947 5.23801,-81.21629 7.285,-91.94041c1.332,-6.97411 4.58801,-33.77013 28.28702,-34.37141c23.43399,-0.5929 28.90298,16.40271 29.12,32.18657c0,0 0.86298,83.54018 0.86298,97.21202c0,13.67102 1.92801,45.24121 1.92801,55.82297c0,10.58255 2.10699,25.12619 3.16202,28.21295c1.05499,3.08676 4.41998,5.29086 6.00198,-3.08844c1.58002,-8.3793 1.099,-50.96838 0.04102,-58.4642c-1.05502,-7.49582 -0.05701,-26.50964 0.21698,-34.45599c0.396,-11.49539 2.35901,-29.0303 2.35901,-35.2038s3.69501,-70.53825 3.69501,-73.62585s-2.01901,-41.51468 30.36899,-41.51468c17.073,0 27.883,7.98489 27.883,41.94176c0,0 2.30301,77.60783 2.33801,82.46074c0.03699,4.8512 3.035,21.07135 2.14499,48.06503c-0.465,14.1123 1.59302,62.10367 1.763,67.46487c0.15201,4.8244 1.879,7.78555 3.729,8.6012c0,0 1.94699,0.80478 3.125,-0.8667c0,0 5.57199,-8.28134 12.655,-9.55173c4.24301,-1.05182 21.138,-0.78717 31.117,2.04083c9.979,2.83133 12.88901,5.93903 15.875,12.25909c1.94901,4.83951 2.34299,7.47656 2.62299,9.3884c0.30002,2.41934 0.27802,6.20032 2.84204,6.21039c1.31494,0.005 1.76794,-0.88852 2.80896,-1.96631c1.65503,-1.70581 4.19501,-3.35474 8.42603,-4.55139c9.53101,-2.68732 25.89697,1.02335 37.14197,4.10843c7.28204,2.00146 8.729,6.24802 11.125,9.64462c2.17505,3.0834 2.047,4.30188 2.30304,5.76401c0,0 4.15295,15.80984 6.44995,32.96875c0,0 3.52905,30.57788 -1.99896,51.84265c-0.48901,1.88336 -1.05304,4.11346 -1.67603,6.62073"/>
	<path id="hand outline" stroke="#ECECED" fill="none" stroke-miterlimit="10" stroke-width="2.5" d="m553.62701,475.12534c0.67902,4.58157 1.37598,6.10233 2.00897,10.82455c1.521,11.33881 3.53705,30.53265 -2.00195,51.80505c-5.39404,20.70703 -19.76105,83.26709 -23.60504,95.72717c-3.51001,11.3689 -20.526,53.18341 -24.91199,63.08356c-4.38501,9.90173 -5.26398,15.77039 -1.75397,34.47687c3.508,18.70648 4.185,58.07227 4.185,58.07227l-198.20502,10.15552c0,0 -2.504,-68.15247 -7.746,-85.15137c-5.246,-17.00067 -7.914,-30.94714 -12.57199,-37.18182c-3.93201,-5.25739 -35.14301,-33.65454 -46.289,-41.33044c-11.14502,-7.67755 -47.76401,-43.70038 -53.16402,-62.62372c-3.239,-11.35974 -15.655,-29.17932 -20.782,-35.00201c-9.797,-11.12347 -20.67,-21.36945 -24.894,-36.08389c-1.22501,-4.26419 -8.006,-19.51794 -9.97501,-25.00061c-2.248,-6.26981 1.028,-4.74066 -2.57599,-8.87674c-4.30501,-4.93576 -20.578,-34.81525 -18.61101,-37.55444c1.97,-2.74088 9.834,-8.77542 22.291,-9.87076c12.455,-1.09787 25.035,3.94846 35.603,11.43256c7.912,5.60574 22.983,17.37161 30.793,40.58682c1.565,4.65775 14.692,18.6503 31.30299,26.83121c6.73001,3.31451 17.117,9.75269 21.74402,4.93497c10.51599,-10.95447 6.061,-40.38919 6.88901,-48.21161c2.03699,-19.18295 4.66397,-48.64539 4.66397,-48.64539s0.979,-57.37555 1.94501,-76.33826c2.86902,-56.29947 5.23801,-81.21629 7.285,-91.94041c1.332,-6.97411 4.58801,-33.77013 28.28702,-34.37141c23.43399,-0.5929 28.90298,16.40271 29.12,32.18657c0,0 0.86298,83.54018 0.86298,97.21202c0,13.67102 1.92801,45.24121 1.92801,55.82297c0,10.58255 2.10699,25.12619 3.16202,28.21295c1.05499,3.08676 4.41998,5.29086 6.00198,-3.08844c1.58002,-8.3793 1.099,-50.96838 0.04102,-58.4642c-1.05502,-7.49582 -0.05701,-26.50964 0.21698,-34.45599c0.396,-11.49539 2.35901,-29.0303 2.35901,-35.2038s3.69501,-70.53825 3.69501,-73.62585s-2.01901,-41.51468 30.36899,-41.51468c17.073,0 27.883,7.98489 27.883,41.94176c0,0 2.30301,77.60783 2.33801,82.46074c0.03699,4.8512 3.035,21.07135 2.14499,48.06503c-0.465,14.1123 1.59302,62.10367 1.763,67.46487c0.15201,4.8244 1.879,7.78555 3.729,8.6012c0,0 1.94699,0.80478 3.125,-0.8667c0,0 5.57199,-8.28134 12.655,-9.55173c4.24301,-1.05182 21.138,-0.78717 31.117,2.04083c9.979,2.83133 12.88901,5.93903 15.875,12.25909c1.94901,4.83951 2.34299,7.47656 2.62299,9.3884c0.30002,2.41934 0.27802,6.20032 2.84204,6.21039c1.31494,0.005 1.76794,-0.88852 2.80896,-1.96631c1.65503,-1.70581 4.19501,-3.35474 8.42603,-4.55139c9.53101,-2.68732 25.89697,1.02335 37.14197,4.10843c7.28204,2.00146 8.729,6.24802 11.125,9.64462c2.17505,3.0834 2.047,4.30188 2.30304,5.76401c0,0 4.15295,15.80984 6.44995,32.96875c0,0 3.52905,30.57788 -1.99896,51.84265c-0.48901,1.88336 -1.05304,4.11346 -1.67603,6.62073"/>
	<path id="thumb nail" fill="#ECECED" d="m133.974,459.68146l-0.05099,-0.18927c0.20099,0.60629 0.34399,1.2612 0.44299,1.90851c-0.017,-1.43704 -0.40399,-3.14703 -1.35699,-4.01379c0.22699,-0.19177 -0.26601,-1.5166 -0.35201,-1.51492l-0.52699,-0.74112l0.34799,0.51669l-0.34799,-0.51669c-1.084,-1.58105 -1.996,-3.37817 -2.94101,-5.24731c-0.528,-1.03171 -2.06099,-3.80112 -2.592,-4.86462l-0.23801,-0.46143l0.248,0.5217l-1.20099,-1.68402c0.021,0.11221 -0.00401,0.14487 0.07999,0.39609l-0.13899,-0.29312c-0.256,-0.21436 -0.60001,-0.80978 -0.80701,-1.06772c0.09001,0.03772 -0.02699,-0.18842 -0.133,-0.38354l0.01001,0.09045c-0.408,-0.74445 -0.953,-1.57852 -1.33401,-2.23593c-0.05399,-0.09045 -0.07399,-0.1683 -0.07999,-0.21774l-0.412,-0.6113c0.104,0.01758 -0.242,-0.54599 -0.021,-0.2655c-0.36401,-0.4346 -0.59401,-0.93369 -0.94601,-1.34488c-0.959,-1.59613 -2.02499,-3.27686 -3.133,-4.87967l-0.00299,0.05191c-0.395,-0.55942 -0.84201,-1.00909 -1.21301,-1.73181c-0.39699,-0.46143 -0.875,-1.15482 -1.146,-1.2905c-0.367,-0.57111 -0.584,-0.76877 -0.963,-1.32062c0.01199,0.17841 -0.422,-0.51251 -0.313,-0.20938c0.119,0.42126 0.224,0.40286 0.328,0.75958l0.021,-0.02011c0.778,1.54089 1.604,3.06165 2.47301,4.59079c0.664,0.98312 1.26199,2.10193 1.90399,3.14453c0.696,1.12134 1.47301,2.32553 2.106,3.27271c0.158,0.22275 0.19301,0.41537 0.27501,0.62723l1.836,3.02142l-0.02701,-0.05191c0.328,0.53177 0.48401,0.96304 0.80301,1.48309c0.021,-0.0126 0.06799,0.06863 0.10399,0.103c-0.047,0.13229 2.00601,3.00131 2.05301,3.21069l0.10899,0.16412c0.59401,1.12634 1.05501,2.35403 1.61301,3.29861c0.164,0.18845 0.338,0.40451 0.489,0.55609c0.052,0.18674 0.15399,0.18674 0.256,0.39441c0.089,0.59708 0.343,0.86591 0.265,0.57281c0.26601,0.41284 0.483,0.84915 0.701,1.22345l0.336,0.50919c0.09799,0.14401 0.112,0.24033 0.104,0.33328c0.23599,0.37433 0.125,0.27969 0.31599,0.69171c-0.017,0.12311 0.63699,0.97144 0.662,1.09705l-0.043,-0.06281c0.211,0.47565 0.209,0.83411 0.395,1.29971c0.47899,1.30219 0.95499,2.73502 1.10399,3.97522c0.084,0.00418 -0.06299,-0.26794 0.043,-0.29642c0.11,0.73526 0.073,1.48138 0.04901,2.21078c-0.02501,0.13232 -0.07001,0.29395 -0.10301,0.35172c-0.041,0.22864 0.03101,0.13736 0.011,0.30569l-0.07399,0.01926c0.03699,0.25037 -0.117,0.35339 -0.119,0.58286c0.02699,0.01755 0.021,0.09964 0.004,0.18256c-0.076,-0.00504 -0.037,0.24951 -0.106,0.22696l0.006,0.00333c-0.013,0.04938 -0.013,0.08456 -0.03699,0.14069c0.02199,0.09464 -0.00201,0.99152 -0.01901,1.09116l-0.026,0.04105c-0.043,0.12393 -0.01099,0.19177 0.033,0.12311l-0.064,0.15491l0.002,-0.01926l-0.06599,0.15491c-0.02,0.02512 -0.067,0.04608 -0.082,-0.00751c-0.01001,0.09293 -0.03801,0.19427 -0.09401,0.27466l0.51001,-0.7478c-0.01001,0.11557 -0.12001,0.29645 -0.15701,0.4137c-0.10399,0.12222 -0.269,0.38602 -0.40799,0.57947c-0.02101,0.04861 0.043,0.10803 -0.047,0.19766c-0.08401,0.02762 -0.063,0.11554 -0.15201,0.18253c0.02701,-0.10718 0.09399,-0.19427 0.14999,-0.29391c-0.07199,-0.00671 -0.17699,0.22189 -0.23999,0.28888c-0.002,0.0444 -0.13701,0.2186 -0.19701,0.33585c-0.024,-0.07874 -0.10199,0.06863 -0.17999,0.11472c-0.06201,0.06699 -0.07201,0.12228 -0.03101,0.10635c0.047,0.06198 0.256,-0.2663 0.246,-0.13065c-0.049,0.01422 -0.146,0.16165 -0.205,0.23532c0.033,0.01929 0.06801,-0.03766 0.062,0.02933c-0.07399,0.0787 -0.11099,0.18674 -0.181,0.19928c0.002,-0.01755 0.035,-0.04352 0.056,-0.06363c-0.07599,0.11139 0.241,-0.70093 0.14601,-0.5527c0.07799,-0.01675 -0.287,0.73108 -0.21301,0.62558c0.04501,-0.01761 0.03101,0.06531 0.076,0.03851l0.022,-0.0896c0.091,-0.07874 0.181,-0.08542 0.177,-0.03769c-0.125,0.15659 0.125,-0.58203 0.047,-0.42874l0.05901,-0.04861c-0.01801,0.07117 -0.117,0.24118 -0.19901,0.27887c0.033,0.01761 -0.01601,0.10135 -0.05701,0.16748l-0.02499,0.01761c-0.043,0.0787 -0.106,0.12894 -0.041,0.13232c0.32401,-0.3576 0.091,0.46222 0.44701,0.11136c-0.21901,0.11472 -0.02101,-0.09546 0.10699,-0.28137c0.039,-0.00336 0.13899,-0.06363 0.252,-0.19092c0.076,-0.12143 0.02,-0.08377 0.01601,-0.11475c0.06299,-0.05695 0.15599,-0.17838 0.18799,-0.14322c0.00801,-0.11636 0.125,-0.13815 0.17201,-0.26126c0.03299,-0.11221 -0.02501,-0.00253 -0.01001,-0.08459l0.271,-0.48987c0.063,-0.03436 0.201,-0.1633 0.21701,-0.03268c-0.117,0.24036 -0.061,-0.12476 -0.162,0.13065c0.146,-0.07703 -0.078,0.22946 -0.034,0.29813c0.084,-0.06281 0.16299,-0.22696 0.213,-0.36679l-0.02499,0.02261c0.043,-0.12564 0.125,-0.37436 0.22699,-0.49661c0.021,0.0419 0.06801,-0.01172 0.041,0.08292l0.07001,-0.16998c-0.002,-0.02432 -0.00601,-0.05026 -0.03101,-0.00168c0.004,-0.0871 0.045,-0.16415 0.086,-0.22446c0.058,-0.01086 0.11101,-0.95465 0.11301,-0.92032c0.02699,-0.12479 0.088,-0.14822 0.07199,-0.27716l-0.14099,1.05597c0.10399,-0.09964 0.16299,-1.45462 0.21899,-1.52496c0.00999,-0.0946 0.01401,-0.20932 -0.02699,-0.19095c0.039,-0.15741 0.06599,0.05362 0.11699,-0.05609c-0.006,-0.00418 -0.021,0.00839 -0.01599,-0.02844l0.05899,-0.10556c-0.03299,-0.25455 0.06601,-0.61465 -0.00999,-0.87677c0.039,0.07538 0.11,0.16245 0.14101,0.33246l-0.022,0.02933c0.01199,0.02426 0.01799,0.16159 0.05499,0.15994c0.035,-0.15829 0.035,-0.2973 0,-0.46899l0.033,-0.09042c-0.004,0 -0.009,0.00171 -0.015,0.00171c0.02299,-0.0553 0.02699,-0.05026 0.041,-0.02936c0.004,0.00339 0.008,0.00671 0.011,0.01343c0.112,-0.103 -0.07201,-0.6348 -0.039,-0.92703c-0.021,-0.0871 -0.019,-0.00922 -0.048,-0.11475c0.021,-0.30063 0.033,-0.5108 0.019,-0.82654c-0.062,-0.09464 -0.082,-0.09964 -0.11499,0.02347l-0.01801,-0.237c0.16,0.20096 0.05099,-0.45303 0.215,-0.23029c0.01801,-0.07288 -0.002,-0.21521 -0.047,-0.34421c-0.037,-0.01004 -0.088,-0.02258 -0.123,-0.19006l-0.01199,-0.37601c0.03,-0.05191 0.062,0.01672 0.09399,0.00333c-0.121,-0.28638 0.028,-0.27216 -0.049,-0.54935c-0.058,-0.17169 -0.158,-0.51166 -0.23199,-0.5058c-0.07401,-0.22025 -0.02301,-0.23196 0.04199,-0.22192z"/>
	<path id="index finger nail" fill="#ECECED" d="m322.91901,237.15807l-0.052,0.37851l0.44699,-3.80779c-0.258,1.3851 -0.52298,2.89919 -0.72299,4.32114c-0.17599,1.43953 -0.396,2.67725 -0.47,3.79437c-0.16998,0.08459 -0.479,0.76709 -0.77798,1.41191c-0.297,0.64732 -0.599,1.25447 -0.58002,1.2888c-0.18698,0.51585 -0.41599,1.02586 -0.69498,1.51909c0.19699,-0.3383 0.36899,-0.685 0.521,-1.03505c-0.15201,0.35005 -0.32401,0.69675 -0.521,1.03505c-0.86902,1.56599 -2.31302,2.98209 -4.229,3.93007c-1.90601,0.96387 -4.19101,1.48306 -6.547,1.71588c-1.306,0.14737 -3.77103,0.26628 -6.26001,0.13567c-2.492,-0.09967 -4.935,-0.45139 -6.22601,-0.75369c-0.37698,-0.08458 -0.74799,-0.17168 -1.121,-0.26797c0.617,0.16496 0.617,0.16414 1.246,0.31151c-1.61298,-0.24451 -3.04498,-0.5887 -4.34998,-1.0677c0.20898,0.12059 0.22897,0.16916 0.75998,0.4095c-0.22299,-0.08542 -0.44098,-0.1767 -0.66,-0.26881c-0.664,-0.13315 -2.004,-0.783 -2.60199,-1.12549c0.16199,0.03516 -0.293,-0.24957 -0.66599,-0.52676l0.12698,0.13065c-1.479,-1.00323 -2.82999,-2.49805 -3.48801,-3.81868c-0.09799,-0.18172 -0.14499,-0.32742 -0.164,-0.41788c-0.215,-0.41704 -0.40399,-0.84663 -0.56299,-1.28462c0.10001,0.08626 -0.25699,-1.12047 -0.02301,-0.49408c-0.38098,-0.98062 -0.47699,-2.03494 -0.65198,-3.02226c-0.21103,-3.58421 -0.21503,-7.46484 -0.354,-11.20981l-0.03101,0.0921c-0.047,-1.31308 -0.20102,-2.47209 -0.133,-4.06738c-0.10001,-1.14058 -0.14102,-2.76268 -0.30502,-3.21739c-0.00897,-1.31561 -0.08899,-1.84152 -0.11298,-3.132c-0.09,0.33163 -0.08401,-1.25446 -0.15802,-0.62053c-0.13098,0.85503 -0.03098,0.90276 -0.13699,1.6288l0.02899,-0.0201c-0.17297,3.38907 -0.27698,6.78317 -0.32999,10.22165c0.06299,2.29456 0.00601,4.78255 0.06299,7.17342c0.04501,1.2863 0.07602,2.62952 0.25201,3.95433c0.172,1.31812 0.50598,2.59102 0.97598,3.66962c0.23102,0.51167 0.34402,0.90024 0.54102,1.34407c0.54901,0.95969 1.32501,2.00481 2.34201,2.92346c1.008,0.92284 2.23798,1.7092 3.483,2.28618l-0.11801,-0.06198c1.31299,0.62305 2.327,1.05936 3.72299,1.43704c0,-0.02011 0.21701,0.03601 0.32401,0.05443c0.10199,0.08374 2.18799,0.55772 4.33801,0.74112c2.14697,0.20935 4.31998,0.19177 4.57199,0.22612l0.45999,-0.00169c3.013,0.09967 6.22202,0.02933 8.78702,-0.64732c0.54099,-0.18089 1.142,-0.40196 1.56799,-0.60461c0.453,-0.11809 0.50198,-0.2169 1.01599,-0.41621c1.39999,-0.38354 2.04501,-0.90944 1.375,-0.6021c0.98999,-0.56108 1.922,-1.21178 2.625,-1.88423c0.31799,-0.3157 0.61099,-0.64565 0.883,-0.99234c0.229,-0.29562 0.38202,-0.44385 0.53702,-0.57196c0.521,-0.78802 0.41998,-0.53177 0.94098,-1.36752c0.09402,-0.08878 0.36301,-0.63812 0.57001,-1.20087c0.215,-0.56444 0.37701,-1.13724 0.43399,-1.25949l-0.04099,0.14738c0.38699,-1.01833 0.72699,-1.67487 1.01001,-2.68228c0.414,-1.45044 0.55099,-2.94858 0.715,-4.40572l0.42099,-4.20473c-0.07999,-0.03099 -0.03699,0.58034 -0.14801,0.60378c0.16202,-1.54756 0.40601,-3.10182 0.561,-4.66446c0.05002,-0.27971 0.121,-0.62138 0.15802,-0.74951c0.07599,-0.49742 -0.01202,-0.29727 0.03098,-0.66156l0.078,-0.04523c-0.01498,-0.53847 0.151,-0.77545 0.16602,-1.28043c-0.02701,-0.02931 -0.017,-0.21271 0.004,-0.39108c0.078,-0.00418 0.043,-0.55103 0.11301,-0.52003l-0.00702,-0.00587c0.01102,-0.10886 0.013,-0.18506 0.03702,-0.3157l-0.06702,-2.34814l0.021,-0.0963c0.021,-0.28641 -0.02399,-0.41286 -0.05499,-0.2462l0.035,-0.35423l0.00201,0.04103l0.03497,-0.35173c0.01401,-0.06364 0.05701,-0.13483 0.082,-0.03265c-0.01099,-0.20099 -0.004,-0.42709 0.026,-0.62305c-0.09799,0.55019 -0.229,1.2352 -0.35599,1.80885c-0.00601,-0.23952 0.07401,-0.6666 0.08801,-0.92537c0.07797,-0.30565 0.17999,-0.93625 0.258,-1.42865c0.00598,-0.10887 -0.07602,-0.18925 -0.01602,-0.43211c0.069,-0.11725 0.022,-0.27719 0.08401,-0.47986c0.01199,0.23701 -0.02301,0.46646 -0.047,0.70345c0.07498,-0.03601 0.10001,-0.57614 0.13699,-0.76205c-0.017,-0.0896 0.04901,-0.54851 0.05499,-0.8391c0.05801,0.13063 0.064,-0.22946 0.11502,-0.39946c0.02499,-0.19427 0.00998,-0.32072 -0.02103,-0.24202c-0.069,-0.06866 -0.112,0.77211 -0.168,0.49576c0.043,-0.06949 0.06403,-0.45305 0.078,-0.65736c-0.039,-0.00504 -0.043,0.13731 -0.069,0.00334c0.02802,-0.22862 0.00201,-0.47232 0.05502,-0.60213c0.008,0.04439 -0.00803,0.13734 -0.01401,0.20433c0.02798,-0.29727 0.12201,1.62798 0.133,1.24107c-0.04501,0.09799 -0.09299,-1.7092 -0.11099,-1.51071c-0.03702,0.1792 -0.06201,-0.13483 -0.09399,0.05191l0.03098,0.21271c-0.03699,0.25542 -0.117,0.35593 -0.13998,0.26295c0.04498,-0.42876 0.16998,1.23857 0.16199,0.86842l-0.03299,0.14738c-0.01199,-0.15742 0.00198,-0.57448 0.06,-0.73276c-0.039,-0.00334 -0.035,-0.21439 -0.035,-0.38857l0.01199,-0.06114c-0.004,-0.18172 0.02701,-0.4321 -0.035,-0.31821c-0.086,1.05432 -0.34799,-0.71768 -0.46298,0.30148c0.12698,-0.42375 0.07999,0.14905 0.05099,0.59875c-0.034,0.04187 -0.09601,0.23866 -0.147,0.56107c-0.01898,0.27971 0.01801,0.16666 0.03702,0.22191c-0.035,0.15411 -0.078,0.44887 -0.121,0.40784c0.03699,0.22108 -0.06601,0.34587 -0.07001,0.60881c0.00598,0.23198 0.02499,-0.01508 0.039,0.15242l-0.12302,1.10373c-0.05298,0.10301 -0.15799,0.42374 -0.207,0.18256c0.05801,-0.52338 0.09402,0.20685 0.12701,-0.33916c-0.121,0.22862 0.017,-0.48488 -0.05099,-0.58871c-0.06201,0.17169 -0.09201,0.52341 -0.10501,0.81985l0.01901,-0.05862c-0.01001,0.26128 -0.035,0.78215 -0.11301,1.06018c-0.02802,-0.06784 -0.065,0.05275 -0.05899,-0.13901l-0.03702,0.35841c0.00601,0.04607 0.01401,0.09296 0.03101,-0.01004c0.01199,0.17082 -0.01901,0.33748 -0.052,0.46727c-0.04099,0.03685 -0.01199,1.91185 -0.03,1.85239c-0.021,0.25877 -0.082,0.3174 -0.06601,0.57114c0.02701,0.02931 0.09,-2.47125 0.07202,-2.12958c-0.06,0.21771 -0.07202,2.93182 -0.15802,3.08844c-0.01401,0.19176 -0.02499,0.42206 0.01602,0.37933c-0.04703,0.32076 -0.06302,-0.10132 -0.11801,0.12563c0.00601,0.00586 0.01999,-0.01758 0.01199,0.05527l-0.06601,0.21774c0.01501,0.50578 -0.129,1.23518 -0.09998,1.76361c-0.02701,-0.15407 -0.082,-0.33162 -0.09,-0.6716l0.02399,-0.05864c-0.008,-0.04773 0.00601,-0.32744 -0.03201,-0.32072c-0.056,0.31821 -0.07199,0.59373 -0.064,0.93289l-0.04898,0.18256c0.00598,-0.00166 0.00998,-0.0067 0.01599,-0.00504c-0.03299,0.10887 -0.035,0.09631 -0.047,0.0553c-0.00201,-0.00504 -0.00601,-0.01175 -0.008,-0.02263c-0.12701,0.19261 -0.043,1.26285 -0.15402,1.84485c0,0.17336 0.01901,0.01759 0.021,0.2328c-0.10098,0.59541 -0.17297,1.00659 -0.254,1.62964c0.026,0.20267 0.04501,0.21942 0.11603,-0.01758l-0.05902,0.47148c-0.086,-0.43799 -0.20499,0.87343 -0.28699,0.39191c-0.04102,0.13651 -0.07401,0.41788 -0.08002,0.68417c0.02902,0.02849 0.07602,0.0737 0.04501,0.40532l-0.14099,0.73108c-0.05103,0.08794 -0.05301,-0.05359 -0.08801,-0.03935c-0.00601,0.59456 -0.142,0.5083 -0.189,1.06604c-0.02402,0.3492 -0.09399,1.03674 -0.022,1.0602c-0.064,0.46977 -0.11801,0.46643 -0.173,0.41452z"/>
	<path id="middle finger nail" fill="#ECECED" d="m401.56201,205.67242l-0.03101,0.43379l0.19901,-4.34543c-0.29102,3.18474 -0.70099,6.88954 -0.617,9.33315c-0.164,0.11139 -0.40298,0.91615 -0.69,1.64221c-0.27701,0.74614 -0.60901,1.43535 -0.58798,1.47388c-0.207,0.582 -0.46201,1.16318 -0.79102,1.72092c0.22501,-0.38606 0.42801,-0.77547 0.59601,-1.17409c-0.168,0.39946 -0.371,0.78802 -0.59601,1.17409c-1.02499,1.76613 -2.76898,3.33211 -5.013,4.36215c-2.23099,1.04678 -4.85599,1.61624 -7.55701,1.88422c-1.496,0.17502 -4.32199,0.31068 -7.168,0.20433c-2.84399,-0.07956 -5.63498,-0.46811 -7.09399,-0.82822c-0.427,-0.09546 -0.845,-0.20517 -1.263,-0.32158c0.69299,0.19765 0.69299,0.19931 1.40399,0.37015c-1.82397,-0.30482 -3.42599,-0.75787 -4.836,-1.4052c0.22702,0.14656 0.24402,0.20181 0.82401,0.5033c-0.242,-0.11137 -0.48398,-0.22612 -0.71698,-0.34669c-0.73203,-0.20685 -2.14001,-1.08447 -2.729,-1.56432c0.168,0.067 -0.289,-0.31404 -0.64502,-0.68419l0.11401,0.16496c-1.43802,-1.3541 -2.56702,-3.2961 -3.16202,-4.87549c-0.086,-0.22108 -0.12698,-0.39191 -0.14297,-0.4966l-0.146,-0.37517c-0.03201,-0.0871 -0.06201,-0.20935 -0.08801,-0.33162c-0.05099,-0.24873 -0.086,-0.51001 -0.11899,-0.77211c0.08499,0.11891 -0.02103,-1.32565 0.07999,-0.56778c-0.17599,-1.19081 -0.14301,-2.42184 -0.26199,-3.57248l-0.11301,-12.79506l-0.03201,0.10384c-0.02298,-1.49564 -0.15399,-2.81711 -0.056,-4.63432c-0.07599,-1.30051 -0.07999,-3.14873 -0.23499,-3.66876c0.021,-1.49817 -0.047,-2.0986 -0.043,-3.56912c-0.099,0.37769 -0.05402,-1.4295 -0.14401,-0.70847c-0.151,0.9731 -0.05298,1.02921 -0.17398,1.8549l0.02899,-0.02428c-0.25,3.85802 -0.42401,7.72527 -0.539,11.64023l-0.06299,8.16995c0.013,1.4655 0.039,2.9888 0.099,4.46518c0.06699,1.48224 0.12299,2.8866 0.34799,4.19885c0.03299,0.15994 0.06201,0.30901 0.11499,0.48404l0.112,0.38438c0.07001,0.24536 0.13202,0.48236 0.21402,0.7361c0.47098,1.11545 1.10199,2.37662 2.01199,3.56995c0.90399,1.19334 2.117,2.28618 3.44901,3.08424l-0.12701,-0.08542c1.397,0.86005 2.53201,1.41777 4.10602,1.90767c0,-0.02177 0.24399,0.05443 0.36697,0.07788c0.11102,0.09798 2.48401,0.70345 4.936,0.90276c2.44299,0.23866 4.918,0.19763 5.203,0.23111l0.52499,-0.00584c3.42599,0.07285 7.05701,-0.03267 9.96902,-0.76291c0.61697,-0.18924 1.30099,-0.42958 1.79498,-0.63979c0.51001,-0.13316 0.57599,-0.22443 1.164,-0.44467c1.58401,-0.41621 2.33801,-0.97896 1.57199,-0.6465c1.151,-0.59541 2.22702,-1.3114 3.06302,-2.04166c0.371,-0.35172 0.72598,-0.71265 1.04498,-1.09953c0.27301,-0.32912 0.44501,-0.49911 0.621,-0.64482c0.61502,-0.8885 0.49002,-0.60043 1.082,-1.55511c0.104,-0.103 0.414,-0.72939 0.638,-1.37923c0.229,-0.64818 0.383,-1.31226 0.44,-1.4563l-0.043,0.17166c0.371,-1.19585 0.64001,-1.97884 0.81299,-3.15541c0.47302,-3.26262 0.48502,-6.81752 0.53,-9.82472c-0.082,-0.03014 0.01501,0.66409 -0.09598,0.69843c0.02899,-1.77451 0.11301,-3.5641 0.09198,-5.35368c0.017,-0.32242 0.047,-0.71768 0.07001,-0.86589c0.01599,-0.57196 -0.04898,-0.33582 -0.04898,-0.75452l0.07199,-0.05862c-0.078,-0.61049 0.05701,-0.89522 0.008,-1.47054c-0.03101,-0.03014 -0.043,-0.23949 -0.04901,-0.44467c0.07901,-0.01256 -0.02698,-0.62976 0.04501,-0.60211l-0.00601,-0.00502c-0.005,-0.12395 -0.013,-0.21187 -0.005,-0.36345l-0.39099,-2.65799l0.008,-0.11055c-0.01999,-0.3291 -0.086,-0.46729 -0.09,-0.27467l-0.01599,-0.40363l0.008,0.04688l-0.017,-0.40195c0.005,-0.07538 0.035,-0.15996 0.07599,-0.04774c-0.039,-0.22694 -0.06699,-0.48152 -0.065,-0.71013c-0.01498,0.63475 -0.043,1.42445 -0.09299,2.09021c-0.03799,-0.27132 -0.021,-0.7654 -0.04501,-1.06018c0.035,-0.35507 0.04102,-1.08112 0.04501,-1.64554c-0.01199,-0.12395 -0.104,-0.20602 -0.07901,-0.48906c0.05099,-0.1407 -0.021,-0.3174 0.008,-0.55272c0.04901,0.26715 0.05103,0.53011 0.06201,0.8031c0.06799,-0.05025 0.01102,-0.66408 0.01901,-0.88097c-0.02902,-0.09967 -0.03702,-0.6264 -0.078,-0.95636c0.078,0.14236 0.02701,-0.26797 0.05099,-0.46477c-0.00601,-0.22443 -0.043,-0.36597 -0.061,-0.27383c-0.07999,-0.06868 0.01199,0.88934 -0.086,0.58118c0.03,-0.08374 -0.01099,-0.51837 -0.02899,-0.75285c-0.04102,-0.00168 -0.021,0.16078 -0.06799,0.01173c-0.01001,-0.26128 -0.078,-0.53595 -0.04703,-0.68921c0.01602,0.04941 0.01602,0.15742 0.02103,0.23364c-0.017,-0.34 0.38898,1.83061 0.336,1.3918c-0.02701,0.11642 -0.36902,-1.92525 -0.35901,-1.70082c-0.004,0.21104 -0.08401,-0.14487 -0.082,0.07202l0.06601,0.237c0.004,0.29393 -0.06,0.41704 -0.095,0.3157c-0.02402,-0.4924 0.36899,1.38092 0.302,0.96304l-0.01102,0.17168c-0.03699,-0.17671 -0.09,-0.65236 -0.061,-0.83742c-0.039,0.00082 -0.06998,-0.23868 -0.09799,-0.43633l0.00201,-0.07033c-0.035,-0.20433 -0.048,-0.49408 -0.091,-0.35674c0.09299,1.20421 -0.465,-0.77211 -0.405,0.39607c0.05499,-0.49408 0.104,0.15997 0.146,0.67247c-0.026,0.0511 -0.05701,0.28139 -0.05701,0.65068c0.026,0.3199 0.04501,0.18675 0.07199,0.24704c-0.01099,0.17838 -0.00699,0.51671 -0.05798,0.47398c0.07001,0.24706 -0.01199,0.40028 0.02499,0.69675c0.04099,0.26212 0.022,-0.01758 0.061,0.16748l0.04498,1.26369c-0.03699,0.12225 -0.09598,0.49742 -0.17798,0.22861c-0.02301,-0.59874 0.12299,0.22444 0.07397,-0.39777c-0.086,0.27132 -0.05798,-0.55103 -0.13998,-0.66074c-0.034,0.1993 -0.01401,0.60211 0.01901,0.93707l0.00998,-0.06697c0.02902,0.29561 0.08002,0.8885 0.04102,1.21007c-0.039,-0.07454 -0.05902,0.06699 -0.078,-0.15073l0.01498,0.40866c0.01401,0.05109 0.026,0.103 0.03,-0.01424c0.035,0.19177 0.02902,0.38353 0.017,0.53343c-0.03299,0.04521 0.25201,2.16643 0.22302,2.10194c0.01398,0.29395 -0.039,0.36681 0.008,0.65152c0.035,0.02933 -0.242,-2.80788 -0.215,-2.41933c-0.022,0.25208 0.32401,3.32878 0.254,3.51302c0.00998,0.21773 0.02499,0.48068 0.06299,0.42876c-0.008,0.36931 -0.07599,-0.10802 -0.104,0.15578c0.00601,0.00502 0.021,-0.02179 0.021,0.06113l-0.04099,0.2529c0.07599,0.57112 0.021,1.4119 0.10999,2.00815c-0.04498,-0.17168 -0.12097,-0.36763 -0.16599,-0.75368l0.01901,-0.06784c-0.01501,-0.05441 -0.03302,-0.37013 -0.07202,-0.36093c-0.01599,0.36597 0,0.67917 0.04501,1.06354l-0.02402,0.21103c0.004,-0.00168 0.00803,-0.00836 0.01401,-0.0067c-0.021,0.12561 -0.02499,0.11305 -0.04099,0.067c-0.00201,-0.00502 -0.00601,-0.01341 -0.01001,-0.02597c-0.104,0.2303 0.09799,1.43535 0.047,2.1053c0.01801,0.19679 0.01999,0.01758 0.043,0.26295l-0.09799,1.86746c0.04898,0.22778 0.06699,0.24622 0.116,-0.0293l-0.01599,0.53845c-0.125,-0.48906 -0.129,1.00659 -0.25201,0.46646c-0.02899,0.15744 -0.039,0.47899 -0.02301,0.78214c0.03302,0.02933 0.08401,0.07874 0.078,0.45808l-0.086,0.83826c-0.043,0.10217 -0.05701,-0.05779 -0.09,-0.04019c0.03702,0.67497 -0.104,0.58705 -0.117,1.22098c0,0.39862 -0.02899,1.18327 0.043,1.20422c-0.021,0.53513 -0.077,0.53177 -0.13199,0.47816z"/>
</g>	
</g>	
<g id="Icons">
	<g id="IDButtonRetry">
		<g id="IDButtonRetryActive" display="none">
			<path fill="#001441" d="M684.58,101.265c0,1.559-1.275,2.834-2.835,2.834H578.343c-1.56,0-2.835-1.275-2.835-2.834v-70.73
				c0-1.559,1.275-2.834,2.835-2.834h103.402c1.56,0,2.835,1.275,2.835,2.834V101.265z"/>
			<path fill="#C5DAF2" d="M681.746,98.386c0,1.559-1.275,2.834-2.835,2.834H578.335c-1.56,0-2.835-1.275-2.835-2.834V30.535
				c0-1.559,1.275-2.834,2.835-2.834h100.576c1.56,0,2.835,1.275,2.835,2.834V98.386z"/>
			<path fill="#5D7AB6" d="M681.746,99.283c0,1.091-0.893,1.984-1.984,1.984h-99.436c-1.092,0-1.984-0.893-1.984-1.984V32.519
				c0-1.091,0.893-1.984,1.984-1.984h99.436c1.092,0,1.984,0.893,1.984,1.984V99.283z"/>
			<path fill="#FFFFFF" d="M652.662,64.515c-0.604-11.757-10.174-21.099-21.896-21.099c-5.848,0-11.141,2.321-15.062,6.092
				l5.027,5.117c2.638-2.472,6.164-3.979,10.033-3.979c7.791,0,14.17,6.107,14.762,13.871h-5.63l9.142,11.691l9.185-11.691
				L652.662,64.515L652.662,64.515z"/>
			<path fill="#FFFFFF" d="M607.401,67.328c0.604,11.755,10.174,21.099,21.9,21.099c5.834,0,11.131-2.32,15.059-6.1l-5.028-5.11
				c-2.641,2.465-6.161,3.981-10.028,3.981c-7.794,0-14.179-6.109-14.763-13.869h5.652l-9.186-11.697l-9.144,11.696H607.401z"/>
		</g> 
		
		<g id="IDButtonRetryInactive">
			<g id="IDButtonRetryInactive_Icon">
				<path fill="#FFFFFF" d="M652.662,64.515c-0.604-11.757-10.174-21.099-21.896-21.099c-5.848,0-11.141,2.321-15.062,6.092
					l5.027,5.117c2.638-2.472,6.164-3.979,10.033-3.979c7.791,0,14.17,6.107,14.762,13.871h-5.63l9.142,11.691l9.185-11.691
					L652.662,64.515L652.662,64.515z"/>
				<path fill="#FFFFFF" d="M607.401,67.328c0.604,11.755,10.174,21.099,21.9,21.099c5.834,0,11.131-2.32,15.059-6.1l-5.028-5.11
					c-2.641,2.465-6.161,3.981-10.028,3.981c-7.794,0-14.179-6.109-14.763-13.869h5.652l-9.186-11.697l-9.144,11.696H607.401z"/>
			</g>
			<g id="IDButtonRetryInactive_Background">
				<path fill="#FFFFFF" d="M681.745,30.2c0.179,0,0.335,0.156,0.335,0.334v70.73c0,0.178-0.156,0.334-0.335,0.334h-103.41
					c-0.179,0-0.335-0.156-0.335-0.334v-70.73c0-0.178,0.156-0.334,0.335-0.334H681.745 M681.745,27.7h-103.41
					c-1.56,0-2.835,1.275-2.835,2.834v70.73c0,1.559,1.275,2.834,2.835,2.834h103.41c1.56,0,2.835-1.275,2.835-2.834v-70.73
					C684.58,28.976,683.305,27.7,681.745,27.7L681.745,27.7z"/>
			</g>
		</g>	
	</g>	<!-- END IDButtonRetry -->
	
	<g id="IDButtonConfirm">
		<g id="IDButtonConfirmActive" display="none">
			<path fill="#001441" d="M796.229,101.265c0,1.559-1.275,2.834-2.835,2.834H689.991c-1.56,0-2.835-1.275-2.835-2.834v-70.73
				c0-1.559,1.275-2.834,2.835-2.834h103.402c1.56,0,2.835,1.275,2.835,2.834V101.265z"/>
			<path fill="#C5DAF2" d="M793.395,98.386c0,1.559-1.275,2.834-2.835,2.834H689.983c-1.56,0-2.835-1.275-2.835-2.834V30.535
				c0-1.559,1.275-2.834,2.835-2.834H790.56c1.56,0,2.835,1.275,2.835,2.834V98.386z"/>
			<path fill="#5D7AB6" d="M793.395,99.283c0,1.091-0.893,1.984-1.984,1.984h-99.436c-1.092,0-1.984-0.893-1.984-1.984V32.519
				c0-1.091,0.893-1.984,1.984-1.984h99.436c1.092,0,1.984,0.893,1.984,1.984V99.283z"/>
			<polygon display="inline" fill="#FFFFFF" points="752.764,51.337 752.764,60.67 712.833,60.67 
				712.833,71.26 752.764,71.26 752.764,80.62 770.518,65.973 	"/>
		</g> 
		
		<g id="IDButtonConfirmInactive">
			<g id="IDButtonConfirmInactive_Icon">
				<polygon fill="#FFFFFF" points="752.764,51.337 752.764,60.67 712.833,60.67 712.833,71.26 
					752.764,71.26 752.764,80.62 770.518,65.973 	"/>
			</g>
			<g id="IDButtonConfirmInactive_Background">
				<path fill="#FFFFFF" d="M793.394,30.2c0.179,0,0.335,0.156,0.335,0.334v70.73c0,0.178-0.156,0.334-0.335,0.334h-103.41
					c-0.179,0-0.335-0.156-0.335-0.334v-70.73c0-0.178,0.156-0.334,0.335-0.334H793.394 M793.394,27.7h-103.41
					c-1.56,0-2.835,1.275-2.835,2.834v70.73c0,1.559,1.275,2.834,2.835,2.834h103.41c1.56,0,2.835-1.275,2.835-2.834v-70.73
					C796.229,28.976,794.953,27.7,793.394,27.7L793.394,27.7z"/>
			</g>
		</g> 
	</g> <!-- END IDButtonConfirm -->
	
	
	<g id="IDIconResult">
		<g id="IDIconResult_0" display="none">
			<g id="IDIconResult_0_Background" enable-background="new">
				<path fill="#D1D2D4" d="M181.535,38.585c0-7.795-6.378-14.173-14.173-14.173h-54.708c-7.795,0-14.173,6.378-14.173,14.173v54.708
					c0,7.795,6.378,14.173,14.173,14.173h54.708c7.795,0,14.173-6.378,14.173-14.173V38.585z"/>
			</g>
		</g> <!-- END IDIconResult_0 No Error capture horizontal roll-->
	
		<g id="IDIconResult_1" display="none" >
			<path display="inline" fill="#5CE224" d="M.461,38.584c0-7.795,6.379-14.173,14.174-14.173h54.708
				c7.795,0,14.172,6.378,14.172,14.173v54.707c0,7.795-6.377,14.173-14.172,14.173h-54.708c-7.795,0-14.174-6.378-14.174-14.173
				V38.584z"/>
		</g> <!-- END IDIconResult_1 OK!  -->


		<g id="IDIconResult_2" display="none" >
			<g id="IDIconResult_2_Background">
				<path fill="#E63622" d="M181.535,38.585c0-7.795-6.378-14.173-14.173-14.173h-54.708c-7.795,0-14.173,6.378-14.173,14.173v54.708
					c0,7.795,6.378,14.173,14.173,14.173h54.708c7.795,0,14.173-6.378,14.173-14.173V38.585z"/>
			</g>
			<g id="IDIconResult_2_Symbol" >
				<circle fill="#FFFFFF" cx="140.008" cy="66.161" r="27.273"/>
				<path fill="#E63622" d="M150.075,81.436c1.063,1.06,2.795,1.06,3.855,0l1.352-1.35c1.063-1.059,1.063-2.794,0-3.853
					l-25.343-25.344c-1.061-1.06-2.794-1.06-3.855,0l-1.35,1.35c-1.061,1.06-1.061,2.794,0,3.854L150.075,81.436z"/>
				<path fill="#E63622" d="M129.941,81.436c-1.063,1.06-2.796,1.06-3.855,0l-1.352-1.35c-1.061-1.059-1.061-2.794,0-3.853
					l25.345-25.344c1.062-1.06,2.793-1.06,3.854,0l1.35,1.35c1.063,1.06,1.063,2.794,0,3.854L129.941,81.436z"/>
			</g>
		</g> <!-- END IDIconResult_2 General Error -->
		
		<g id="IDIconResult_3" display="none">
			<g id="IDIconResult_3_Background">
				<path fill="#E63622" d="M181.536,38.585c0-7.795-6.378-14.173-14.173-14.173h-54.709c-7.795,0-14.173,6.378-14.173,14.173v54.708
					c0,7.795,6.378,14.173,14.173,14.173h54.709c7.795,0,14.173-6.378,14.173-14.173V38.585z"/>
			</g>
			<g id="IDIconResult_3_Symbol">
				<path fill="#FFFFFF" d="M133.94,62.491c0,1.516-1.241,2.757-2.759,2.757h-7.59c-1.517,0-2.758-1.241-2.758-2.757V51.796
					c0-1.517,1.241-2.758,2.758-2.758h7.59c1.518,0,2.759,1.241,2.759,2.758V62.491z"/>
				<circle fill="#CE251C" cx="129.385" cy="55.976" r="1.997"/>
				<path fill="#FFFFFF" d="M144.884,93.189V70.905c0-2.651-1.738-3.673-2.992-4.399c-1.255-0.726-8.311-4.749-8.311-4.749h-12.386
					c0,0-7.056,4.023-8.311,4.749s-2.99,1.749-2.99,4.399v22.284H404.884L144.884,93.189z"/>
				<circle fill="#FFFFFF" cx="139.842" cy="55.766" r="1.809"/>
				<circle fill="#FFFFFF" cx="146.36" cy="59.189" r="1.613"/>
				<circle fill="#FFFFFF" cx="152.681" cy="62.415" r="1.613"/>
				<circle fill="#FFFFFF" cx="158.054" cy="65.362" r="1.613"/>
				<circle fill="#FFFFFF" cx="146.36" cy="52.344" r="1.614"/>
				<circle fill="#FFFFFF" cx="152.681" cy="49.36" r="1.613"/>
				<circle fill="#FFFFFF" cx="158.054" cy="46.171" r="1.613"/>
				<circle fill="#FFFFFF" cx="163.315" cy="42.936" r="1.438"/>
				<circle fill="#FFFFFF" cx="152.681" cy="55.587" r="1.439"/>
				<circle fill="#FFFFFF" cx="158.054" cy="52.343" r="1.438"/>
				<circle fill="#FFFFFF" cx="158.054" cy="59.19" r="1.438"/>
				<circle fill="#FFFFFF" cx="163.315" cy="68.79" r="1.438"/>
				<circle fill="#FFFFFF" cx="163.315" cy="49.359" r="1.145"/>
				<circle fill="#FFFFFF" cx="163.315" cy="56.431" r="1.146"/>
				<circle fill="#FFFFFF" cx="163.315" cy="63.202" r="1.146"/>
				<circle fill="#FFFFFF" cx="168.978" cy="40.01" r="1.145"/>
				<circle fill="#FFFFFF" cx="168.978" cy="46.171" r="0.887"/>
				<circle fill="#FFFFFF" cx="168.978" cy="51.391" r="0.887"/>
				<circle fill="#FFFFFF" cx="168.978" cy="56.43" r="0.887"/>
				<circle fill="#FFFFFF" cx="168.978" cy="67.446" r="0.887"/>
				<circle fill="#FFFFFF" cx="168.978" cy="62.058" r="0.887"/>
				<circle fill="#FFFFFF" cx="168.978" cy="72.982" r="1.145"/>
			</g>
		</g> <!-- END IDIconResult_3 Dirty Prism -->
	
		<g id="IDIconResult_4" display="none" >
			<g id="IDIconResult_4_Background">
				<path fill="#E63622" d="M181.535,38.585c0-7.795-6.378-14.173-14.173-14.173h-54.708c-7.795,0-14.173,6.378-14.173,14.173v54.708
					c0,7.795,6.378,14.173,14.173,14.173h54.708c7.795,0,14.173-6.378,14.173-14.173V38.585z"/>
			</g>
			<g id="IDIconResult_4_Symbol" >
				<path fill="#FFFFFF" d="M171.405,83.292c0,2.281-1.866,4.148-4.148,4.148h-54.496c-2.282,0-4.15-1.867-4.15-4.148V51.984
					c0-2.281,1.868-4.149,4.15-4.149h54.496c2.282,0,4.15,1.868,4.15,4.149L171.405,83.292L171.405,83.292z"/>
				<path fill="none" stroke="#FFFFFF" stroke-width="3" stroke-miterlimit="10" d="M171.405,83.292
					c0,2.281-1.866,4.148-4.148,4.148h-54.496c-2.282,0-4.15-1.867-4.15-4.148V51.984c0-2.281,1.868-4.149,4.15-4.149h54.496
					c2.282,0,4.15,1.868,4.15,4.149L171.405,83.292L171.405,83.292z"/>
				<path fill="#FFFFFF" d="M127.255,50.068c0.306,0,0.555-0.249,0.555-0.553V44.99c0-0.305-0.249-0.554-0.555-0.554h-8.45
					c-0.304,0-0.554,0.249-0.554,0.554v4.525c0,0.305,0.25,0.553,0.554,0.553H127.255z"/>
				<path fill="none" stroke="#FFFFFF" stroke-width="3" stroke-miterlimit="10" d="M127.255,50.068
					c0.306,0,0.555-0.249,0.555-0.553V44.99c0-0.305-0.249-0.554-0.555-0.554h-8.45c-0.304,0-0.554,0.249-0.554,0.554v4.525
					c0,0.305,0.25,0.553,0.554,0.553H127.255z"/>
				<circle fill="#E63622" cx="151.857" cy="67.845" r="11.848"/>
			</g>
		</g> <!-- END IDIconResult_4 Capture Error -->
	
		<g id="IDIconResult_5" display="none" >
			<g id="IDIconResult_5_Background">
				<path fill="#E63622" d="M181.535,38.585c0-7.795-6.378-14.173-14.173-14.173h-54.708c-7.795,0-14.173,6.378-14.173,14.173v54.708
					c0,7.795,6.378,14.173,14.173,14.173h54.708c7.795,0,14.173-6.378,14.173-14.173V38.585z"/>
			</g>
			<g id="IDIconResult_5_Symbol">
				<path fill="#E43823" d="M130.478,93.179V65.337c0-5.911-4.339-10.699-9.692-10.699c-5.353,0-9.691,4.788-9.691,10.699v27.843"/>
				<path fill="#E43823" d="M143.754,93.299V60.004c0-5.908-4.337-10.7-9.691-10.7c-5.352,0-9.69,4.791-9.69,10.7v33.295"/>
				<path fill="none" stroke="#E43823" stroke-width="2" stroke-miterlimit="10" d="M153.487,38.22v10.79
					c0,3.908,2.708,5.582,6.05,5.582s6.05-1.356,6.05-5.582V37.576"/>
				<path fill="#E43823" d="M156.438,93.379V55.73c0-5.911-4.337-10.701-9.691-10.701c-5.352,0-9.692,4.79-9.692,10.701v37.648"/>
				<rect fill="#E43823" x="136.735" y="49.927" width="4.578" height="3.259"/>
				<path fill="none" stroke="#FFFFFF" stroke-width="2.5" stroke-miterlimit="10" stroke-dasharray="3.9681,2.4801" d="
					M130.478,88.827v-23.49c0-5.911-4.339-10.699-9.692-10.699c-5.353,0-9.691,4.788-9.691,10.699v24.694"/>
				<path fill="none" stroke="#FFFFFF" stroke-width="2.5" stroke-miterlimit="10" stroke-dasharray="3.9012,2.4383" d="
					M143.754,88.987V60.004c0-5.908-4.337-10.7-9.691-10.7c-5.352,0-9.69,4.791-9.69,10.7v30.168"/>
				<path fill="none" stroke="#FFFFFF" stroke-width="2.5" stroke-miterlimit="10" stroke-dasharray="3.9998,2.4999" d="
					M156.438,89.007V55.73c0-5.911-4.337-10.701-9.691-10.701c-5.352,0-9.692,4.79-9.692,10.701v34.491"/>
				<path fill="#FFFFFF" d="M168.923,49.58c0-5.911-4.202-10.701-9.384-10.701c-5.186,0-9.388,4.79-9.388,10.701v43.798h18.771V49.58z"/>
				<line fill="none" stroke="#FFFFFF" stroke-width="2.5" stroke-miterlimit="10" x1="111.094" y1="91.236" x2="111.094" y2="93.179"/>
				<line fill="none" stroke="#FFFFFF" stroke-width="2.5" stroke-miterlimit="10" x1="124.373" y1="91.355" x2="124.373" y2="93.299"/>
				<line fill="none" stroke="#FFFFFF" stroke-width="2.5" stroke-miterlimit="10" x1="137.056" y1="91.435" x2="137.056" y2="93.379"/>
				<line fill="none" stroke="#FFFFFF" stroke-width="2.5" stroke-miterlimit="10" x1="130.478" y1="93.179" x2="130.478" y2="91.236"/>
				<line fill="none" stroke="#FFFFFF" stroke-width="2.5" stroke-miterlimit="10" x1="143.754" y1="93.299" x2="143.754" y2="91.355"/>
				<line fill="none" stroke="#FFFFFF" stroke-width="2.5" stroke-miterlimit="10" x1="156.438" y1="93.379" x2="156.438" y2="91.435"/>
			</g>
		</g> <!-- END IDIconResult_5 Rolling Error -->
	
		<g id="IDIconResult_6" display="none">
			<g id="IDIconResult_6_Background">
				<path fill="#E63622" d="M181.536,38.585c0-7.795-6.378-14.173-14.173-14.173h-54.709c-7.795,0-14.173,6.378-14.173,14.173v54.708
					c0,7.795,6.378,14.173,14.173,14.173h54.709c7.795,0,14.173-6.378,14.173-14.173V38.585z"/>
			</g>
			<g id="IDIconResult_6_Symbol">
				<path fill="#FFFFFF" d="M158.13,88.932c0,2.299-1.885,4.181-4.182,4.181h-35.893c-2.298,0-4.182-1.882-4.182-4.181V53.039
					c0-2.3,1.884-4.182,4.182-4.182h35.893c2.297,0,4.182,1.882,4.182,4.182V88.932z"/>
				<path fill="#E63622" d="M152.833,75.242c0,1.532-1.254,2.787-2.785,2.787H131.71c-1.532,0-2.786-1.255-2.786-2.787V56.908
					c0-1.533,1.254-2.787,2.786-2.787h18.338c1.535,0,2.785,1.254,2.785,2.787V75.242L152.833,75.242z"/>
				<path fill="#E63622" d="M166.144,59.327c0,1.532-1.248,2.787-2.787,2.787h-16.363c-1.533,0-2.789-1.255-2.789-2.787V42.964
					c0-1.532,1.256-2.787,2.789-2.787h16.363c1.535,0,2.787,1.255,2.787,2.787V59.327z"/>
				<path fill="none" stroke="#FFFFFF" stroke-width="3" stroke-miterlimit="10" d="M166.144,59.327
					c0,1.532-1.248,2.787-2.787,2.787h-16.363c-1.533,0-2.789-1.255-2.789-2.787V42.964c0-1.532,1.256-2.787,2.789-2.787h16.363
					c1.535,0,2.787,1.255,2.787,2.787V59.327z"/>
			</g>
		</g> <!-- END IDIconResult_6 Segmentation Error -->
		
		<g id="IDIconResult_7" display="none">
			<g id="IDIconResult_7_Background">
				<path fill="#E63622" d="M181.535,38.585c0-7.795-6.378-14.173-14.173-14.173h-54.708c-7.795,0-14.173,6.378-14.173,14.173v54.708
					c0,7.795,6.378,14.173,14.173,14.173h54.708c7.795,0,14.173-6.378,14.173-14.173V38.585z"/>
			</g>
			<g id="IDIconResult_7_Symbol" >
				<path fill="#FFFFFF" d="M162.701,88.82l-4.157,4.635l-7.087-6.202c-3.612,2.044-7.635,2.931-11.449,2.931
					c-14.585,0-23.308-11.586-23.308-25.489c0-13.903,8.723-25.488,23.308-25.488c14.583,0,23.307,11.584,23.307,25.488
					c0,6.68-2.044,14.04-6.884,18.674L162.701,88.82z M140.553,77.779l4.091-4.703l5.927,5.181c3.069-3.68,4.227-8.656,4.227-13.563
					c0-9.337-4.362-18.537-14.789-18.537c-10.428,0-14.79,9.2-14.79,18.537c0,9.335,4.362,18.538,14.79,18.538
					c1.77,0,3.749-0.341,5.451-1.159L140.553,77.779z"/>
			</g>
		</g> <!-- END IDIconResult_7 Quality Check Error -->
	
		<g id="IDIconResult_8"  display="none">
			<g id="IDIconResult_8_Background">
				<path fill="#E63622" d="M181.536,38.585c0-7.795-6.378-14.173-14.173-14.173h-54.709c-7.795,0-14.173,6.378-14.173,14.173v54.708
					c0,7.795,6.378,14.173,14.173,14.173h54.709c7.795,0,14.173-6.378,14.173-14.173V38.585z"/>
			</g>
			<g id="IDIconResult_8_Symbol">
				<path fill="#FFFFFF" d="M114.543,51.614c-0.061-0.091-3.777-6.038,2.043-10.388c1.533-1.148,3.131-1.733,4.746-1.733
					c3.41,0,5.668,2.567,5.762,2.678L136,53.87l-9.912,12.997L114.543,51.614z"/>
				<path fill="#FFFFFF" d="M121.333,40c3.217,0,5.379,2.5,5.379,2.5l8.652,11.369l-9.271,12.158l-11.145-14.721
					c0,0-3.565-5.558,1.941-9.675C118.499,40.426,120.004,40,121.333,40 M121.333,38.987c-1.727,0-3.427,0.617-5.052,1.835
					c-4.954,3.703-3.596,8.838-2.187,11.034l0.021,0.033l0.024,0.032l11.143,14.72l0.805,1.065l0.813-1.062l9.271-12.158
					l0.469-0.616l-0.469-0.614l-8.65-11.369l-0.02-0.025l-0.021-0.024C127.379,41.722,124.97,38.987,121.333,38.987L121.333,38.987z"/>
				<polygon fill="#FFFFFF" points="147.86,92.898 143.868,87.516 153.572,74.488 167.366,92.898 				"/>
				<path fill="#FFFFFF" d="M153.574,75.334l12.778,17.056h-18.236l-3.615-4.874L153.574,75.334 M153.572,73.64l-0.813,1.089
					l-9.072,12.183l-0.449,0.604l0.449,0.606l3.613,4.873l0.305,0.41h0.513h18.237h2.029l-1.216-1.623L154.39,74.726L153.572,73.64
					L153.572,73.64z"/>
				<path fill="#FFFFFF" d="M113.438,92.898l37.833-50.699c0.116-0.138,2.375-2.707,5.783-2.707c1.615,0,3.213,0.584,4.748,1.734
					c5.818,4.349,2.102,10.296,2.064,10.355L132.94,92.898H113.438z"/>
				<path fill="#FFFFFF" d="M157.054,40c1.33,0,2.836,0.426,4.443,1.633c5.508,4.117,1.943,9.675,1.943,9.675l-30.755,41.084H114.45
					l37.227-49.89C151.677,42.501,153.839,40,157.054,40 M157.054,38.987L157.054,38.987c-3.637,0-6.045,2.735-6.146,2.853
					l-0.023,0.027l-0.021,0.029l-37.225,49.889l-1.211,1.621h2.023h18.235h0.508l0.304-0.406l30.75-41.083l0.023-0.029l0.02-0.03
					c1.414-2.196,2.77-7.333-2.185-11.034C160.481,39.604,158.781,38.987,157.054,38.987L157.054,38.987z"/>
				<path fill="none" stroke="#E63622" stroke-width="1.75" stroke-miterlimit="10" d="M156.819,38.343l-5.666,7.368
					c-2.051,2.667-0.91,5.36,1.572,7.274c2.49,1.917,5.221,2.543,7.502-0.292l5.877-7.903"/>
				<path fill="none" stroke="#E63622" stroke-width="1.75" stroke-miterlimit="10" d="M111.633,44.395l5.689,7.353
					c2.059,2.662,4.953,2.244,7.437,0.323c2.486-1.924,3.782-4.404,1.557-7.282l-6.028-7.79"/>
			</g>
		</g> <!-- END IDIconResult_8 Sequence Check Error -->
		
		<g id="IDIconResult_9" display="none">
			<g id="IDIconResult_9_Background">
				<path fill="#E63622" d="M181.535,38.585c0-7.795-6.378-14.173-14.173-14.173h-54.708c-7.795,0-14.173,6.378-14.173,14.173v54.708
					c0,7.795,6.378,14.173,14.173,14.173h54.708c7.795,0,14.173-6.378,14.173-14.173V38.585z"/>
			</g>
		</g> <!-- END IDIconResult_9 Future Error -->

		
		<g id="IDIconResult_10" display="none">
			<g id="IDIconResult_10_Background">
				<path fill="#E63622" d="M181.535,38.585c0-7.795-6.378-14.173-14.173-14.173h-54.708c-7.795,0-14.173,6.378-14.173,14.173v54.708
					c0,7.795,6.378,14.173,14.173,14.173h54.708c7.795,0,14.173-6.378,14.173-14.173V38.585z"/>
			</g>
			<g id="IDIconResult_10_Symbol">
				<path fill="#FFFFFF" d="M172.571,91.772c0,0.78-0.638,1.417-1.417,1.417h-62.293c-0.78,0-1.417-0.638-1.417-1.417v-4.383
					c0-0.78,0.638-1.417,1.417-1.417h62.293c0.779,0,1.417,0.638,1.417,1.417V91.772z"/>
				<rect x="127.501" y="58.546" fill="#FFFFFF" width="25.021" height="31.033"/>
				<rect x="127.501" y="48.443" fill="#FFFFFF" width="25.021" height="6.355"/>
				<rect x="127.501" y="41.49" fill="#FFFFFF" width="25.021" height="3.575"/>
				<polygon id="ignorieren_3_" fill="#E63622" points="150.353,66.442 144.467,66.442 144.467,38.24 135.57,38.24 135.57,66.442 
					129.671,66.442 140.012,78.984 		"/>
			</g>
		</g> <!-- END IDIconResult_10 compression error OBSOLETE-->	
	</g> <!-- END IDIconResult -->
</g> <!-- END Icons -->
</svg>